<mxfile host="Electron" agent="Mozilla/5.0 (Windows NT 10.0; Win64; x64) AppleWebKit/537.36 (KHTML, like Gecko) draw.io/25.0.1 Chrome/128.0.6613.186 Electron/32.2.6 Safari/537.36" version="25.0.1">
  <diagram name="Page-1" id="3b8Og0VBJOStUcaK-ylK">
    <mxGraphModel dx="1863" dy="1775" grid="1" gridSize="10" guides="1" tooltips="1" connect="1" arrows="1" fold="1" page="1" pageScale="1" pageWidth="827" pageHeight="1169" math="0" shadow="0">
      <root>
        <mxCell id="0" />
        <mxCell id="1" parent="0" />
        <mxCell id="YBL5l0G2B59LgJblBarH-1" value="User" style="shape=umlActor;verticalLabelPosition=bottom;verticalAlign=top;html=1;" vertex="1" parent="1">
          <mxGeometry x="-107" y="-3" width="30" height="60" as="geometry" />
        </mxCell>
        <mxCell id="YBL5l0G2B59LgJblBarH-2" value="" style="html=1;points=[[0,0,0,0,5],[0,1,0,0,-5],[1,0,0,0,5],[1,1,0,0,-5]];perimeter=orthogonalPerimeter;outlineConnect=0;targetShapes=umlLifeline;portConstraint=eastwest;newEdgeStyle={&quot;curved&quot;:0,&quot;rounded&quot;:0};" vertex="1" parent="1">
          <mxGeometry x="-97" y="75" width="10" height="1070" as="geometry" />
        </mxCell>
        <mxCell id="YBL5l0G2B59LgJblBarH-3" value="Login Page" style="shape=umlLifeline;perimeter=lifelinePerimeter;whiteSpace=wrap;html=1;container=1;dropTarget=0;collapsible=0;recursiveResize=0;outlineConnect=0;portConstraint=eastwest;newEdgeStyle={&quot;curved&quot;:0,&quot;rounded&quot;:0};" vertex="1" parent="1">
          <mxGeometry x="58" y="79" width="100" height="1070" as="geometry" />
        </mxCell>
        <mxCell id="YBL5l0G2B59LgJblBarH-4" value="" style="html=1;points=[[0,0,0,0,5],[0,1,0,0,-5],[1,0,0,0,5],[1,1,0,0,-5]];perimeter=orthogonalPerimeter;outlineConnect=0;targetShapes=umlLifeline;portConstraint=eastwest;newEdgeStyle={&quot;curved&quot;:0,&quot;rounded&quot;:0};" vertex="1" parent="YBL5l0G2B59LgJblBarH-3">
          <mxGeometry x="45" y="72" width="12" height="33" as="geometry" />
        </mxCell>
        <mxCell id="YBL5l0G2B59LgJblBarH-5" value="Forget Password" style="shape=umlLifeline;perimeter=lifelinePerimeter;whiteSpace=wrap;html=1;container=1;dropTarget=0;collapsible=0;recursiveResize=0;outlineConnect=0;portConstraint=eastwest;newEdgeStyle={&quot;curved&quot;:0,&quot;rounded&quot;:0};" vertex="1" parent="1">
          <mxGeometry x="201" y="79" width="100" height="1070" as="geometry" />
        </mxCell>
        <mxCell id="YBL5l0G2B59LgJblBarH-6" value="Verification" style="shape=umlLifeline;perimeter=lifelinePerimeter;whiteSpace=wrap;html=1;container=1;dropTarget=0;collapsible=0;recursiveResize=0;outlineConnect=0;portConstraint=eastwest;newEdgeStyle={&quot;curved&quot;:0,&quot;rounded&quot;:0};" vertex="1" parent="1">
          <mxGeometry x="344" y="79" width="100" height="1070" as="geometry" />
        </mxCell>
        <mxCell id="YBL5l0G2B59LgJblBarH-7" value="" style="html=1;points=[[0,0,0,0,5],[0,1,0,0,-5],[1,0,0,0,5],[1,1,0,0,-5]];perimeter=orthogonalPerimeter;outlineConnect=0;targetShapes=umlLifeline;portConstraint=eastwest;newEdgeStyle={&quot;curved&quot;:0,&quot;rounded&quot;:0};" vertex="1" parent="YBL5l0G2B59LgJblBarH-6">
          <mxGeometry x="44" y="93" width="12" height="33" as="geometry" />
        </mxCell>
        <mxCell id="YBL5l0G2B59LgJblBarH-8" value="Website Interface" style="shape=umlLifeline;perimeter=lifelinePerimeter;whiteSpace=wrap;html=1;container=1;dropTarget=0;collapsible=0;recursiveResize=0;outlineConnect=0;portConstraint=eastwest;newEdgeStyle={&quot;curved&quot;:0,&quot;rounded&quot;:0};" vertex="1" parent="1">
          <mxGeometry x="487" y="79" width="100" height="1070" as="geometry" />
        </mxCell>
        <mxCell id="YBL5l0G2B59LgJblBarH-9" value="" style="html=1;points=[[0,0,0,0,5],[0,1,0,0,-5],[1,0,0,0,5],[1,1,0,0,-5]];perimeter=orthogonalPerimeter;outlineConnect=0;targetShapes=umlLifeline;portConstraint=eastwest;newEdgeStyle={&quot;curved&quot;:0,&quot;rounded&quot;:0};" vertex="1" parent="YBL5l0G2B59LgJblBarH-8">
          <mxGeometry x="44" y="208" width="12" height="113" as="geometry" />
        </mxCell>
        <mxCell id="YBL5l0G2B59LgJblBarH-10" value="" style="html=1;points=[[0,0,0,0,5],[0,1,0,0,-5],[1,0,0,0,5],[1,1,0,0,-5]];perimeter=orthogonalPerimeter;outlineConnect=0;targetShapes=umlLifeline;portConstraint=eastwest;newEdgeStyle={&quot;curved&quot;:0,&quot;rounded&quot;:0};" vertex="1" parent="YBL5l0G2B59LgJblBarH-8">
          <mxGeometry x="44" y="340" width="12" height="113" as="geometry" />
        </mxCell>
        <mxCell id="YBL5l0G2B59LgJblBarH-11" value="" style="html=1;points=[[0,0,0,0,5],[0,1,0,0,-5],[1,0,0,0,5],[1,1,0,0,-5]];perimeter=orthogonalPerimeter;outlineConnect=0;targetShapes=umlLifeline;portConstraint=eastwest;newEdgeStyle={&quot;curved&quot;:0,&quot;rounded&quot;:0};" vertex="1" parent="YBL5l0G2B59LgJblBarH-8">
          <mxGeometry x="44" y="475" width="12" height="113" as="geometry" />
        </mxCell>
        <mxCell id="YBL5l0G2B59LgJblBarH-12" value="" style="html=1;points=[[0,0,0,0,5],[0,1,0,0,-5],[1,0,0,0,5],[1,1,0,0,-5]];perimeter=orthogonalPerimeter;outlineConnect=0;targetShapes=umlLifeline;portConstraint=eastwest;newEdgeStyle={&quot;curved&quot;:0,&quot;rounded&quot;:0};" vertex="1" parent="YBL5l0G2B59LgJblBarH-8">
          <mxGeometry x="44" y="607" width="12" height="113" as="geometry" />
        </mxCell>
        <mxCell id="YBL5l0G2B59LgJblBarH-13" value="Server" style="shape=umlLifeline;perimeter=lifelinePerimeter;whiteSpace=wrap;html=1;container=1;dropTarget=0;collapsible=0;recursiveResize=0;outlineConnect=0;portConstraint=eastwest;newEdgeStyle={&quot;curved&quot;:0,&quot;rounded&quot;:0};" vertex="1" parent="1">
          <mxGeometry x="630" y="79" width="100" height="1070" as="geometry" />
        </mxCell>
        <mxCell id="YBL5l0G2B59LgJblBarH-14" value="" style="html=1;points=[[0,0,0,0,5],[0,1,0,0,-5],[1,0,0,0,5],[1,1,0,0,-5]];perimeter=orthogonalPerimeter;outlineConnect=0;targetShapes=umlLifeline;portConstraint=eastwest;newEdgeStyle={&quot;curved&quot;:0,&quot;rounded&quot;:0};" vertex="1" parent="YBL5l0G2B59LgJblBarH-13">
          <mxGeometry x="44" y="208" width="12" height="33" as="geometry" />
        </mxCell>
        <mxCell id="YBL5l0G2B59LgJblBarH-15" value="" style="html=1;points=[[0,0,0,0,5],[0,1,0,0,-5],[1,0,0,0,5],[1,1,0,0,-5]];perimeter=orthogonalPerimeter;outlineConnect=0;targetShapes=umlLifeline;portConstraint=eastwest;newEdgeStyle={&quot;curved&quot;:0,&quot;rounded&quot;:0};" vertex="1" parent="YBL5l0G2B59LgJblBarH-13">
          <mxGeometry x="44" y="254" width="12" height="33" as="geometry" />
        </mxCell>
        <mxCell id="YBL5l0G2B59LgJblBarH-16" value="" style="html=1;points=[[0,0,0,0,5],[0,1,0,0,-5],[1,0,0,0,5],[1,1,0,0,-5]];perimeter=orthogonalPerimeter;outlineConnect=0;targetShapes=umlLifeline;portConstraint=eastwest;newEdgeStyle={&quot;curved&quot;:0,&quot;rounded&quot;:0};" vertex="1" parent="YBL5l0G2B59LgJblBarH-13">
          <mxGeometry x="44" y="352" width="12" height="33" as="geometry" />
        </mxCell>
        <mxCell id="YBL5l0G2B59LgJblBarH-17" value="" style="html=1;points=[[0,0,0,0,5],[0,1,0,0,-5],[1,0,0,0,5],[1,1,0,0,-5]];perimeter=orthogonalPerimeter;outlineConnect=0;targetShapes=umlLifeline;portConstraint=eastwest;newEdgeStyle={&quot;curved&quot;:0,&quot;rounded&quot;:0};" vertex="1" parent="YBL5l0G2B59LgJblBarH-13">
          <mxGeometry x="44" y="398" width="12" height="33" as="geometry" />
        </mxCell>
        <mxCell id="YBL5l0G2B59LgJblBarH-18" value="" style="html=1;points=[[0,0,0,0,5],[0,1,0,0,-5],[1,0,0,0,5],[1,1,0,0,-5]];perimeter=orthogonalPerimeter;outlineConnect=0;targetShapes=umlLifeline;portConstraint=eastwest;newEdgeStyle={&quot;curved&quot;:0,&quot;rounded&quot;:0};" vertex="1" parent="YBL5l0G2B59LgJblBarH-13">
          <mxGeometry x="44" y="493" width="12" height="33" as="geometry" />
        </mxCell>
        <mxCell id="YBL5l0G2B59LgJblBarH-19" value="" style="html=1;points=[[0,0,0,0,5],[0,1,0,0,-5],[1,0,0,0,5],[1,1,0,0,-5]];perimeter=orthogonalPerimeter;outlineConnect=0;targetShapes=umlLifeline;portConstraint=eastwest;newEdgeStyle={&quot;curved&quot;:0,&quot;rounded&quot;:0};" vertex="1" parent="YBL5l0G2B59LgJblBarH-13">
          <mxGeometry x="44" y="539" width="12" height="33" as="geometry" />
        </mxCell>
        <mxCell id="YBL5l0G2B59LgJblBarH-20" value="" style="html=1;points=[[0,0,0,0,5],[0,1,0,0,-5],[1,0,0,0,5],[1,1,0,0,-5]];perimeter=orthogonalPerimeter;outlineConnect=0;targetShapes=umlLifeline;portConstraint=eastwest;newEdgeStyle={&quot;curved&quot;:0,&quot;rounded&quot;:0};" vertex="1" parent="YBL5l0G2B59LgJblBarH-13">
          <mxGeometry x="44" y="627" width="12" height="33" as="geometry" />
        </mxCell>
        <mxCell id="YBL5l0G2B59LgJblBarH-21" value="" style="html=1;points=[[0,0,0,0,5],[0,1,0,0,-5],[1,0,0,0,5],[1,1,0,0,-5]];perimeter=orthogonalPerimeter;outlineConnect=0;targetShapes=umlLifeline;portConstraint=eastwest;newEdgeStyle={&quot;curved&quot;:0,&quot;rounded&quot;:0};" vertex="1" parent="YBL5l0G2B59LgJblBarH-13">
          <mxGeometry x="44" y="673" width="12" height="33" as="geometry" />
        </mxCell>
        <mxCell id="YBL5l0G2B59LgJblBarH-22" value="Database" style="shape=umlLifeline;perimeter=lifelinePerimeter;whiteSpace=wrap;html=1;container=1;dropTarget=0;collapsible=0;recursiveResize=0;outlineConnect=0;portConstraint=eastwest;newEdgeStyle={&quot;curved&quot;:0,&quot;rounded&quot;:0};" vertex="1" parent="1">
          <mxGeometry x="773" y="79" width="100" height="1070" as="geometry" />
        </mxCell>
        <mxCell id="YBL5l0G2B59LgJblBarH-23" value="" style="html=1;points=[[0,0,0,0,5],[0,1,0,0,-5],[1,0,0,0,5],[1,1,0,0,-5]];perimeter=orthogonalPerimeter;outlineConnect=0;targetShapes=umlLifeline;portConstraint=eastwest;newEdgeStyle={&quot;curved&quot;:0,&quot;rounded&quot;:0};" vertex="1" parent="YBL5l0G2B59LgJblBarH-22">
          <mxGeometry x="44" y="229" width="12" height="43" as="geometry" />
        </mxCell>
        <mxCell id="YBL5l0G2B59LgJblBarH-24" value="" style="html=1;points=[[0,0,0,0,5],[0,1,0,0,-5],[1,0,0,0,5],[1,1,0,0,-5]];perimeter=orthogonalPerimeter;outlineConnect=0;targetShapes=umlLifeline;portConstraint=eastwest;newEdgeStyle={&quot;curved&quot;:0,&quot;rounded&quot;:0};" vertex="1" parent="YBL5l0G2B59LgJblBarH-22">
          <mxGeometry x="44" y="367" width="12" height="43" as="geometry" />
        </mxCell>
        <mxCell id="YBL5l0G2B59LgJblBarH-25" value="" style="html=1;points=[[0,0,0,0,5],[0,1,0,0,-5],[1,0,0,0,5],[1,1,0,0,-5]];perimeter=orthogonalPerimeter;outlineConnect=0;targetShapes=umlLifeline;portConstraint=eastwest;newEdgeStyle={&quot;curved&quot;:0,&quot;rounded&quot;:0};" vertex="1" parent="YBL5l0G2B59LgJblBarH-22">
          <mxGeometry x="44" y="513.5" width="12" height="43" as="geometry" />
        </mxCell>
        <mxCell id="YBL5l0G2B59LgJblBarH-26" value="" style="html=1;points=[[0,0,0,0,5],[0,1,0,0,-5],[1,0,0,0,5],[1,1,0,0,-5]];perimeter=orthogonalPerimeter;outlineConnect=0;targetShapes=umlLifeline;portConstraint=eastwest;newEdgeStyle={&quot;curved&quot;:0,&quot;rounded&quot;:0};" vertex="1" parent="YBL5l0G2B59LgJblBarH-22">
          <mxGeometry x="44" y="647" width="12" height="43" as="geometry" />
        </mxCell>
        <mxCell id="YBL5l0G2B59LgJblBarH-27" value="Login to Page" style="html=1;verticalAlign=bottom;endArrow=block;curved=0;rounded=0;" edge="1" parent="1" target="YBL5l0G2B59LgJblBarH-4">
          <mxGeometry width="80" relative="1" as="geometry">
            <mxPoint x="-87" y="168" as="sourcePoint" />
            <mxPoint x="102.5" y="168" as="targetPoint" />
          </mxGeometry>
        </mxCell>
        <mxCell id="YBL5l0G2B59LgJblBarH-28" value="verification" style="html=1;verticalAlign=bottom;endArrow=block;curved=0;rounded=0;" edge="1" parent="1" target="YBL5l0G2B59LgJblBarH-7">
          <mxGeometry width="80" relative="1" as="geometry">
            <mxPoint x="115" y="183" as="sourcePoint" />
            <mxPoint x="382" y="185" as="targetPoint" />
          </mxGeometry>
        </mxCell>
        <mxCell id="YBL5l0G2B59LgJblBarH-29" value="Forget Password" style="html=1;verticalAlign=bottom;endArrow=block;curved=0;rounded=0;" edge="1" parent="1">
          <mxGeometry width="80" relative="1" as="geometry">
            <mxPoint x="106" y="151" as="sourcePoint" />
            <mxPoint x="250.4999999999999" y="151" as="targetPoint" />
          </mxGeometry>
        </mxCell>
        <mxCell id="YBL5l0G2B59LgJblBarH-30" value="check security questions and answers" style="html=1;verticalAlign=bottom;endArrow=block;curved=0;rounded=0;" edge="1" parent="1">
          <mxGeometry width="80" relative="1" as="geometry">
            <mxPoint x="109" y="228" as="sourcePoint" />
            <mxPoint x="824" y="228" as="targetPoint" />
          </mxGeometry>
        </mxCell>
        <mxCell id="YBL5l0G2B59LgJblBarH-31" value="send email to user to reset password" style="html=1;verticalAlign=bottom;endArrow=block;curved=0;rounded=0;" edge="1" parent="1">
          <mxGeometry width="80" relative="1" as="geometry">
            <mxPoint x="823" y="249" as="sourcePoint" />
            <mxPoint x="251" y="249" as="targetPoint" />
          </mxGeometry>
        </mxCell>
        <mxCell id="YBL5l0G2B59LgJblBarH-32" value="successfully login" style="html=1;verticalAlign=bottom;endArrow=block;curved=0;rounded=0;entryX=1.1;entryY=0.464;entryDx=0;entryDy=0;entryPerimeter=0;" edge="1" parent="1">
          <mxGeometry width="80" relative="1" as="geometry">
            <mxPoint x="392.5" y="204.998" as="sourcePoint" />
            <mxPoint x="-87" y="204.998" as="targetPoint" />
          </mxGeometry>
        </mxCell>
        <mxCell id="YBL5l0G2B59LgJblBarH-33" value="request blog posts" style="html=1;verticalAlign=bottom;endArrow=block;curved=0;rounded=0;" edge="1" parent="1">
          <mxGeometry width="80" relative="1" as="geometry">
            <mxPoint x="-87" y="292" as="sourcePoint" />
            <mxPoint x="530" y="292" as="targetPoint" />
          </mxGeometry>
        </mxCell>
        <mxCell id="YBL5l0G2B59LgJblBarH-34" value="Fetch data" style="html=1;verticalAlign=bottom;endArrow=block;curved=0;rounded=0;" edge="1" parent="1" target="YBL5l0G2B59LgJblBarH-14">
          <mxGeometry width="80" relative="1" as="geometry">
            <mxPoint x="544" y="302" as="sourcePoint" />
            <mxPoint x="640" y="302" as="targetPoint" />
          </mxGeometry>
        </mxCell>
        <mxCell id="YBL5l0G2B59LgJblBarH-35" value="Query Blog Post" style="html=1;verticalAlign=bottom;endArrow=block;curved=0;rounded=0;" edge="1" parent="1" source="YBL5l0G2B59LgJblBarH-14">
          <mxGeometry width="80" relative="1" as="geometry">
            <mxPoint x="690" y="308.5" as="sourcePoint" />
            <mxPoint x="820" y="308.5" as="targetPoint" />
          </mxGeometry>
        </mxCell>
        <mxCell id="YBL5l0G2B59LgJblBarH-36" value="Return Blog Data" style="html=1;verticalAlign=bottom;endArrow=block;curved=0;rounded=0;" edge="1" parent="1">
          <mxGeometry width="80" relative="1" as="geometry">
            <mxPoint x="817" y="348" as="sourcePoint" />
            <mxPoint x="686" y="347" as="targetPoint" />
          </mxGeometry>
        </mxCell>
        <mxCell id="YBL5l0G2B59LgJblBarH-37" value="Return Data" style="html=1;verticalAlign=bottom;endArrow=block;curved=0;rounded=0;entryX=1;entryY=0.69;entryDx=0;entryDy=0;entryPerimeter=0;" edge="1" parent="1" target="YBL5l0G2B59LgJblBarH-9">
          <mxGeometry width="80" relative="1" as="geometry">
            <mxPoint x="673" y="365" as="sourcePoint" />
            <mxPoint x="550" y="365" as="targetPoint" />
          </mxGeometry>
        </mxCell>
        <mxCell id="YBL5l0G2B59LgJblBarH-38" value="Display Data" style="html=1;verticalAlign=bottom;endArrow=block;curved=0;rounded=0;" edge="1" parent="1" target="YBL5l0G2B59LgJblBarH-2">
          <mxGeometry width="80" relative="1" as="geometry">
            <mxPoint x="530" y="400" as="sourcePoint" />
            <mxPoint x="400" y="400" as="targetPoint" />
          </mxGeometry>
        </mxCell>
        <mxCell id="YBL5l0G2B59LgJblBarH-39" value="Submit Contant Form" style="html=1;verticalAlign=bottom;endArrow=block;curved=0;rounded=0;" edge="1" parent="1">
          <mxGeometry width="80" relative="1" as="geometry">
            <mxPoint x="-87" y="422.82" as="sourcePoint" />
            <mxPoint x="530" y="422.82" as="targetPoint" />
          </mxGeometry>
        </mxCell>
        <mxCell id="YBL5l0G2B59LgJblBarH-40" value="Validate Form" style="html=1;verticalAlign=bottom;endArrow=block;curved=0;rounded=0;" edge="1" parent="1">
          <mxGeometry width="80" relative="1" as="geometry">
            <mxPoint x="544" y="430" as="sourcePoint" />
            <mxPoint x="674" y="430" as="targetPoint" />
          </mxGeometry>
        </mxCell>
        <mxCell id="YBL5l0G2B59LgJblBarH-41" value="Confirmation Message" style="html=1;verticalAlign=bottom;endArrow=block;curved=0;rounded=0;entryX=1;entryY=0.69;entryDx=0;entryDy=0;entryPerimeter=0;" edge="1" parent="1">
          <mxGeometry width="80" relative="1" as="geometry">
            <mxPoint x="673" y="493" as="sourcePoint" />
            <mxPoint x="543" y="493" as="targetPoint" />
          </mxGeometry>
        </mxCell>
        <mxCell id="YBL5l0G2B59LgJblBarH-42" value="Store from data" style="html=1;verticalAlign=bottom;endArrow=block;curved=0;rounded=0;" edge="1" parent="1">
          <mxGeometry width="80" relative="1" as="geometry">
            <mxPoint x="683" y="446" as="sourcePoint" />
            <mxPoint x="817" y="446.5" as="targetPoint" />
          </mxGeometry>
        </mxCell>
        <mxCell id="YBL5l0G2B59LgJblBarH-43" value="Acknowlede" style="html=1;verticalAlign=bottom;endArrow=block;curved=0;rounded=0;" edge="1" parent="1">
          <mxGeometry width="80" relative="1" as="geometry">
            <mxPoint x="814" y="486" as="sourcePoint" />
            <mxPoint x="683" y="485" as="targetPoint" />
          </mxGeometry>
        </mxCell>
        <mxCell id="YBL5l0G2B59LgJblBarH-44" value="Submit Adress Form" style="html=1;verticalAlign=bottom;endArrow=block;curved=0;rounded=0;" edge="1" parent="1">
          <mxGeometry width="80" relative="1" as="geometry">
            <mxPoint x="-87" y="568" as="sourcePoint" />
            <mxPoint x="530" y="568" as="targetPoint" />
          </mxGeometry>
        </mxCell>
        <mxCell id="YBL5l0G2B59LgJblBarH-45" value="Validate Form" style="html=1;verticalAlign=bottom;endArrow=block;curved=0;rounded=0;" edge="1" parent="1">
          <mxGeometry width="80" relative="1" as="geometry">
            <mxPoint x="544" y="575.1800000000001" as="sourcePoint" />
            <mxPoint x="674" y="575.1800000000001" as="targetPoint" />
          </mxGeometry>
        </mxCell>
        <mxCell id="YBL5l0G2B59LgJblBarH-46" value="Store from data" style="html=1;verticalAlign=bottom;endArrow=block;curved=0;rounded=0;" edge="1" parent="1">
          <mxGeometry width="80" relative="1" as="geometry">
            <mxPoint x="683" y="591.1800000000001" as="sourcePoint" />
            <mxPoint x="817" y="591.6800000000001" as="targetPoint" />
          </mxGeometry>
        </mxCell>
        <mxCell id="YBL5l0G2B59LgJblBarH-47" value="Acknowlede" style="html=1;verticalAlign=bottom;endArrow=block;curved=0;rounded=0;" edge="1" parent="1">
          <mxGeometry width="80" relative="1" as="geometry">
            <mxPoint x="814" y="631.1800000000001" as="sourcePoint" />
            <mxPoint x="683" y="630.1800000000001" as="targetPoint" />
          </mxGeometry>
        </mxCell>
        <mxCell id="YBL5l0G2B59LgJblBarH-48" value="Confirmation Message" style="html=1;verticalAlign=bottom;endArrow=block;curved=0;rounded=0;entryX=1;entryY=0.69;entryDx=0;entryDy=0;entryPerimeter=0;" edge="1" parent="1">
          <mxGeometry width="80" relative="1" as="geometry">
            <mxPoint x="673" y="638.1800000000001" as="sourcePoint" />
            <mxPoint x="543" y="638.1800000000001" as="targetPoint" />
          </mxGeometry>
        </mxCell>
        <mxCell id="YBL5l0G2B59LgJblBarH-49" value="Add Project Details" style="html=1;verticalAlign=bottom;endArrow=block;curved=0;rounded=0;" edge="1" parent="1">
          <mxGeometry width="80" relative="1" as="geometry">
            <mxPoint x="-87" y="705" as="sourcePoint" />
            <mxPoint x="530" y="705" as="targetPoint" />
          </mxGeometry>
        </mxCell>
        <mxCell id="YBL5l0G2B59LgJblBarH-50" value="Validate Form" style="html=1;verticalAlign=bottom;endArrow=block;curved=0;rounded=0;" edge="1" parent="1">
          <mxGeometry width="80" relative="1" as="geometry">
            <mxPoint x="544" y="712.1800000000001" as="sourcePoint" />
            <mxPoint x="674" y="712.1800000000001" as="targetPoint" />
          </mxGeometry>
        </mxCell>
        <mxCell id="YBL5l0G2B59LgJblBarH-51" value="Store from data" style="html=1;verticalAlign=bottom;endArrow=block;curved=0;rounded=0;" edge="1" parent="1">
          <mxGeometry width="80" relative="1" as="geometry">
            <mxPoint x="683" y="728.1800000000001" as="sourcePoint" />
            <mxPoint x="817" y="728.6800000000001" as="targetPoint" />
          </mxGeometry>
        </mxCell>
        <mxCell id="YBL5l0G2B59LgJblBarH-52" value="Acknowlede" style="html=1;verticalAlign=bottom;endArrow=block;curved=0;rounded=0;" edge="1" parent="1">
          <mxGeometry width="80" relative="1" as="geometry">
            <mxPoint x="814" y="768.1800000000001" as="sourcePoint" />
            <mxPoint x="683" y="767.1800000000001" as="targetPoint" />
          </mxGeometry>
        </mxCell>
        <mxCell id="YBL5l0G2B59LgJblBarH-53" value="Confirmation Message" style="html=1;verticalAlign=bottom;endArrow=block;curved=0;rounded=0;entryX=1;entryY=0.69;entryDx=0;entryDy=0;entryPerimeter=0;" edge="1" parent="1">
          <mxGeometry width="80" relative="1" as="geometry">
            <mxPoint x="673" y="775.1800000000001" as="sourcePoint" />
            <mxPoint x="543" y="775.1800000000001" as="targetPoint" />
          </mxGeometry>
        </mxCell>
      </root>
    </mxGraphModel>
  </diagram>
</mxfile>
